<svg width="22" height="16" viewBox="0 0 22 16" fill="none" xmlns="http://www.w3.org/2000/svg">
<path d="M0 8C0 8 4.125 0.4375 11 0.4375C17.875 0.4375 22 8 22 8C22 8 17.875 15.5625 11 15.5625C4.125 15.5625 0 8 0 8ZM11 12.8125C12.2764 12.8125 13.5004 12.3055 14.403 11.403C15.3055 10.5004 15.8125 9.27635 15.8125 8C15.8125 6.72365 15.3055 5.49957 14.403 4.59705C13.5004 3.69453 12.2764 3.1875 11 3.1875C9.72365 3.1875 8.49957 3.69453 7.59705 4.59705C6.69453 5.49957 6.1875 6.72365 6.1875 8C6.1875 9.27635 6.69453 10.5004 7.59705 11.403C8.49957 12.3055 9.72365 12.8125 11 12.8125Z" fill="#2F2F2F"/>
</svg>
